<svg width="24" height="24" viewBox="0 0 24 24" fill="none" xmlns="http://www.w3.org/2000/svg">
<path opacity="0.993" fill-rule="evenodd" clip-rule="evenodd" d="M10.9453 -0.0234375C11.6328 -0.0234375 12.3203 -0.0234375 13.0078 -0.0234375C17.7096 0.561661 21.0612 2.99916 23.0625 7.28906C23.5452 8.4697 23.8499 9.68845 23.9766 10.9453C23.9766 11.6328 23.9766 12.3203 23.9766 13.0078C23.3915 17.7096 20.954 21.0612 16.6641 23.0625C15.4834 23.5452 14.2647 23.8499 13.0078 23.9766C12.3203 23.9766 11.6328 23.9766 10.9453 23.9766C6.24352 23.3915 2.89194 20.954 0.890625 16.6641C0.407968 15.4834 0.103281 14.2647 -0.0234375 13.0078C-0.0234375 12.3203 -0.0234375 11.6328 -0.0234375 10.9453C0.561661 6.24352 2.99916 2.89194 7.28906 0.890625C8.4697 0.407968 9.68845 0.103281 10.9453 -0.0234375ZM11.7422 6.86719C12.2225 6.88045 12.5037 7.12266 12.5859 7.59375C12.5662 7.69617 12.5428 7.7977 12.5156 7.89844C11.4466 9.0143 10.3607 10.1159 9.25781 11.2031C11.9141 11.2187 14.5703 11.2344 17.2266 11.25C17.8755 11.3994 18.0708 11.7822 17.8125 12.3984C17.6595 12.5804 17.4642 12.682 17.2266 12.7031C14.5703 12.7187 11.9141 12.7344 9.25781 12.75C10.3607 13.8373 11.4466 14.9388 12.5156 16.0547C12.6419 16.6162 12.4231 16.96 11.8594 17.0859C11.6947 17.0703 11.5463 17.0157 11.4141 16.9219C9.95311 15.4609 8.4922 14 7.03125 12.5391C6.87502 12.1641 6.87502 11.7891 7.03125 11.4141C8.4922 9.95311 9.95311 8.4922 11.4141 7.03125C11.5178 6.9555 11.6272 6.9008 11.7422 6.86719Z" fill="white"/>
</svg>
