<svg width="20" height="24" viewBox="0 0 20 24" fill="none" xmlns="http://www.w3.org/2000/svg">
<path opacity="0.966" fill-rule="evenodd" clip-rule="evenodd" d="M6.27347 -0.0234375C8.77346 -0.0234375 11.2735 -0.0234375 13.7735 -0.0234375C16.5173 0.399955 18.3689 1.91558 19.3282 4.52344C19.6733 5.69883 19.7202 6.88631 19.4688 8.08594C18.5626 10.2735 17.6563 12.4609 16.75 14.6484C16.7344 16.3672 16.7188 18.0859 16.7032 19.8047C16.3786 21.598 15.3864 22.8715 13.7266 23.625C13.3244 23.7775 12.9182 23.8947 12.5078 23.9766C10.8203 23.9766 9.13285 23.9766 7.44535 23.9766C5.4459 23.5817 4.09435 22.4255 3.39066 20.5078C3.33179 20.2759 3.28491 20.0415 3.25004 19.8047C3.23443 18.0859 3.21877 16.3672 3.20316 14.6484C2.32169 12.4884 1.43107 10.3321 0.531287 8.17969C0.0403932 6.06548 0.446645 4.14361 1.75004 2.41406C2.94333 1.01664 4.45116 0.204144 6.27347 -0.0234375ZM6.32035 1.42969C8.85282 1.40788 11.3841 1.43132 13.9141 1.5C16.2186 1.992 17.617 3.39044 18.1094 5.69531C18.2127 6.339 18.1971 6.97964 18.0625 7.61719C17.6251 8.6797 17.1875 9.74217 16.75 10.8047C16.7344 9.1328 16.7188 7.46095 16.7032 5.78906C16.4776 5.06484 15.9854 4.76016 15.2266 4.875C15.0078 4.96875 14.7891 5.0625 14.5703 5.15625C14.2216 5.25666 13.8779 5.24105 13.5391 5.10938C13.2891 4.95314 13.0391 4.79686 12.7891 4.64062C12.1122 4.44438 11.5654 4.63188 11.1485 5.20312C10.1102 5.83931 9.1884 5.69869 8.38285 4.78125C7.77235 4.44972 7.20985 4.51222 6.69535 4.96875C6.34772 5.18067 5.97272 5.25881 5.57035 5.20312C5.27912 5.12002 4.99787 5.01066 4.7266 4.875C3.95813 4.77839 3.46594 5.09869 3.25004 5.83594C3.23443 7.49217 3.21877 9.14845 3.20316 10.8047C2.76568 9.74217 2.32816 8.6797 1.89066 7.61719C1.52052 5.28778 2.30958 3.46745 4.25785 2.15625C4.9066 1.78645 5.59411 1.54426 6.32035 1.42969ZM7.58597 6.11719C8.9138 7.21261 10.3357 7.34545 11.8516 6.51562C12.0168 6.37383 12.1887 6.24103 12.3672 6.11719C13.2711 6.72961 14.2321 6.83902 15.25 6.44531C15.2885 6.95672 15.2806 7.46452 15.2266 7.96875C13.8026 8.18447 12.3807 8.41102 10.961 8.64844C11.0478 9.11559 11.1259 9.58434 11.1953 10.0547C12.5567 9.86466 13.9161 9.66155 15.2735 9.44531C15.2891 10.9769 15.2735 12.5081 15.2266 14.0391C14.6831 14.2515 14.1362 14.4546 13.586 14.6484C12.655 13.2266 11.3269 12.5704 9.6016 12.6797C9.61697 11.3559 9.60137 10.0356 9.55472 8.71875C7.93426 8.4682 6.31707 8.21039 4.70316 7.94531C4.6719 7.4453 4.6719 6.94533 4.70316 6.44531C5.72508 6.84225 6.68602 6.73289 7.58597 6.11719ZM4.67972 9.44531C5.81968 9.62156 6.96029 9.79345 8.1016 9.96094C8.11721 11.0083 8.1016 12.0552 8.05472 13.1016C7.32052 13.4374 6.78146 13.9686 6.43754 14.6953C5.86983 14.4722 5.29955 14.2534 4.7266 14.0391C4.67972 12.5081 4.66411 10.9769 4.67972 9.44531ZM9.6016 14.1328C10.5136 14.0488 11.3027 14.3144 11.9688 14.9297C12.1165 15.225 12.2884 15.5063 12.4844 15.7734C12.87 16.1062 13.3153 16.2234 13.8203 16.125C14.305 15.9635 14.7815 15.7838 15.25 15.5859C15.2813 16.9453 15.2813 18.3047 15.25 19.6641C15.067 20.6401 14.567 21.4058 13.75 21.9609C13.7266 21.1329 13.7188 20.3048 13.7266 19.4766C13.2422 19.4766 12.7578 19.4766 12.2735 19.4766C12.2735 20.4922 12.2735 21.5078 12.2735 22.5234C11.7578 22.5234 11.2422 22.5234 10.7266 22.5234C10.7266 21.5078 10.7266 20.4922 10.7266 19.4766C10.2266 19.4766 9.72661 19.4766 9.2266 19.4766C9.2266 20.4922 9.2266 21.5078 9.2266 22.5234C8.71097 22.5234 8.19535 22.5234 7.67972 22.5234C7.67972 21.5078 7.67972 20.4922 7.67972 19.4766C7.19537 19.4766 6.71096 19.4766 6.2266 19.4766C6.24221 20.2897 6.2266 21.1021 6.17972 21.9141C5.35786 21.365 4.86568 20.5994 4.70316 19.6172C4.6719 18.2734 4.6719 16.9297 4.70316 15.5859C5.17646 15.7717 5.65299 15.9514 6.13285 16.125C6.66502 16.2284 7.12594 16.0956 7.51566 15.7266C7.68371 15.4687 7.83999 15.203 7.98441 14.9297C8.44294 14.4934 8.98201 14.2277 9.6016 14.1328Z" fill="white"/>
</svg>
