<svg width="24" height="24" viewBox="0 0 24 24" fill="none" xmlns="http://www.w3.org/2000/svg">
<path opacity="0.963" fill-rule="evenodd" clip-rule="evenodd" d="M10.9453 -0.0234375C11.6484 -0.0234375 12.3516 -0.0234375 13.0547 -0.0234375C17.0042 0.436199 20.0589 2.32682 22.2188 5.64844C23.2045 7.28541 23.7905 9.051 23.9766 10.9453C23.9766 11.6328 23.9766 12.3203 23.9766 13.0078C23.3914 17.7097 20.9539 21.0613 16.6641 23.0625C15.4837 23.5451 14.265 23.8498 13.0078 23.9766C12.3203 23.9766 11.6328 23.9766 10.9453 23.9766C6.24328 23.3912 2.89174 20.9537 0.890625 16.6641C0.415484 15.4978 0.110797 14.2947 -0.0234375 13.0547C-0.0234375 12.336 -0.0234375 11.6172 -0.0234375 10.8984C0.598837 6.11409 3.11446 2.74691 7.52344 0.796875C8.63363 0.370385 9.77423 0.0969478 10.9453 -0.0234375ZM11.0391 1.42969C14.9745 1.24564 18.1386 2.69876 20.5312 5.78906C21.7783 7.52227 22.4423 9.45975 22.5234 11.6016C22.0078 11.6016 21.4922 11.6016 20.9766 11.6016C20.7407 8.31502 19.225 5.82286 16.4297 4.125C16.0553 3.9261 15.6726 3.74641 15.2812 3.58594C15.212 3.63019 15.1651 3.69269 15.1406 3.77344C15.0052 4.1537 14.8567 4.5287 14.6953 4.89844C15.5939 5.29275 16.4064 5.8162 17.1328 6.46875C16.7344 6.8047 16.3359 7.14061 15.9375 7.47656C14.2653 6.06389 12.3669 5.6498 10.2422 6.23438C7.54163 7.19344 6.11977 9.10748 5.97656 11.9766C6.46092 11.9766 6.94533 11.9766 7.42969 11.9766C7.43198 11.2956 7.58822 10.655 7.89844 10.0547C8.33198 10.2988 8.76164 10.5487 9.1875 10.8047C8.74936 12.1225 9.02283 13.2709 10.0078 14.25C11.2254 15.1561 12.4755 15.203 13.7578 14.3906C14.8298 13.4864 15.1814 12.3535 14.8125 10.9922C14.6748 10.6208 14.4795 10.2848 14.2266 9.98438C14.1953 9.95311 14.1641 9.95311 14.1328 9.98438C13.7808 10.2974 13.437 10.6177 13.1016 10.9453C13.5943 11.5575 13.6334 12.1981 13.2188 12.8672C12.3906 13.7422 11.5625 13.7422 10.7344 12.8672C10.2457 11.9826 10.4098 11.2404 11.2266 10.6406C11.4649 10.5273 11.7149 10.457 11.9766 10.4297C11.9766 9.94533 11.9766 9.46092 11.9766 8.97656C11.2807 9.00019 10.6556 9.21891 10.1016 9.63281C9.66408 9.38283 9.22655 9.1328 8.78906 8.88281C8.7412 8.85928 8.73337 8.82806 8.76562 8.78906C10.118 7.51158 11.6883 7.14441 13.4766 7.6875C15.5388 8.55323 16.5466 10.1079 16.5 12.3516C16.2048 14.4749 15.0251 15.8265 12.9609 16.4062C10.6733 16.7468 8.97023 15.9109 7.85156 13.8984C7.40836 14.0966 6.97083 14.3076 6.53906 14.5312C7.67208 16.7316 9.48459 17.88 11.9766 17.9766C12.4507 17.9681 12.9194 17.9134 13.3828 17.8125C13.8289 17.6794 14.2664 17.5387 14.6953 17.3906C14.9729 17.7896 15.2385 18.1959 15.4922 18.6094C15.1273 18.8271 14.7523 19.0224 14.3672 19.1953C14.5269 19.6276 14.6676 20.0651 14.7891 20.5078C17.6781 19.5328 19.6078 17.5953 20.5781 14.6953C20.7283 14.1866 20.8455 13.671 20.9297 13.1484C21.4444 13.1016 21.96 13.086 22.4766 13.1016C22.0071 16.5128 20.3353 19.1456 17.4609 21C14.372 22.7701 11.1689 23.0045 7.85156 21.7031C4.11785 19.9518 1.98503 17.0221 1.45312 12.9141C1.42187 12.2891 1.42187 11.664 1.45312 11.0391C1.46613 10.7636 1.513 10.498 1.59375 10.2422C2.08917 10.3875 2.58136 10.5438 3.07031 10.7109C2.68905 14.2677 3.9078 17.1349 6.72656 19.3125C8.29777 20.4165 10.0478 20.9712 11.9766 20.9766C11.9766 20.4922 11.9766 20.0078 11.9766 19.5234C8.82052 19.3884 6.53147 17.9197 5.10938 15.1172C3.91103 12.1515 4.31729 9.4328 6.32812 6.96094C7.84308 5.30916 9.72591 4.4654 11.9766 4.42969C11.9766 3.94531 11.9766 3.46094 11.9766 2.97656C8.53219 3.08484 5.91497 4.60047 4.125 7.52344C3.82939 8.08223 3.57939 8.66039 3.375 9.25781C2.88145 9.10631 2.38926 8.95008 1.89844 8.78906C3.17842 5.14195 5.67844 2.79037 9.39844 1.73438C9.94687 1.60428 10.4937 1.50272 11.0391 1.42969ZM18.0703 7.57031C19.2488 9.19017 19.7097 11.0027 19.4531 13.0078C19.1727 14.9602 18.2743 16.5539 16.7578 17.7891C16.4649 17.3752 16.1837 16.9534 15.9141 16.5234C17.9106 14.5968 18.4497 12.3155 17.5312 9.67969C17.3535 9.30061 17.1582 8.93344 16.9453 8.57812C17.3125 8.23439 17.6875 7.89848 18.0703 7.57031Z" fill="white"/>
</svg>
