<svg width="24" height="24" viewBox="0 0 24 24" fill="none" xmlns="http://www.w3.org/2000/svg">
<path opacity="0.968" fill-rule="evenodd" clip-rule="evenodd" d="M11.5078 -0.0234375C11.8203 -0.0234375 12.1328 -0.0234375 12.4453 -0.0234375C13.2386 0.175715 13.7855 0.660089 14.0859 1.42969C16.2576 1.47656 18.4295 1.49219 20.6016 1.47656C20.5937 2.38295 20.6016 3.2892 20.625 4.19531C21.8263 4.73841 22.295 5.6603 22.0312 6.96094C21.9497 7.27261 21.8012 7.54608 21.5859 7.78125C22.0529 8.78555 22.5138 9.79336 22.9688 10.8047C23.3006 10.8506 23.6365 10.8662 23.9766 10.8516C23.9766 11.4297 23.9766 12.0078 23.9766 12.5859C23.6883 14.0911 22.8446 15.1614 21.4453 15.7969C19.337 16.4795 17.6417 15.9248 16.3594 14.1328C15.8157 13.1054 15.6204 12.0116 15.7734 10.8516C16.1186 10.8671 16.4624 10.8514 16.8047 10.8047C17.2578 9.8047 17.7109 8.80467 18.1641 7.80469C17.4867 6.84033 17.4789 5.87161 18.1406 4.89844C18.41 4.5738 18.746 4.35504 19.1484 4.24219C19.1484 3.80469 19.1484 3.36719 19.1484 2.92969C17.4607 2.91407 15.7732 2.92969 14.0859 2.97656C13.8203 3.58594 13.3828 4.02344 12.7734 4.28906C12.7266 8.36705 12.711 12.4452 12.7266 16.5234C13.383 16.5156 14.0393 16.5234 14.6953 16.5469C16.4166 16.8386 17.4791 17.8307 17.8828 19.5234C18.9141 19.5234 19.9453 19.5234 20.9766 19.5234C20.9766 21.0078 20.9766 22.4922 20.9766 23.9766C14.9766 23.9766 8.97656 23.9766 2.97656 23.9766C2.97656 22.4922 2.97656 21.0078 2.97656 19.5234C4.00781 19.5234 5.03906 19.5234 6.07031 19.5234C6.47531 17.8295 7.53778 16.8373 9.25781 16.5469C9.91387 16.5234 10.5701 16.5156 11.2266 16.5234C11.2422 12.4452 11.2266 8.36705 11.1797 4.28906C10.5703 4.02344 10.1328 3.58594 9.86719 2.97656C8.17997 2.92969 6.49247 2.91407 4.80469 2.92969C4.80469 3.36719 4.80469 3.80469 4.80469 4.24219C5.63977 4.52296 6.13195 5.10108 6.28125 5.97656C6.37008 6.65522 6.20602 7.26459 5.78906 7.80469C6.2422 8.80467 6.6953 9.8047 7.14844 10.8047C7.49077 10.8514 7.83455 10.8671 8.17969 10.8516C8.4585 12.6743 7.896 14.1665 6.49219 15.3281C5.01516 16.2817 3.49952 16.3443 1.94531 15.5156C0.887334 14.8295 0.231085 13.8685 -0.0234375 12.6328C-0.0234375 12.039 -0.0234375 11.4453 -0.0234375 10.8516C0.316622 10.8662 0.652561 10.8506 0.984375 10.8047C1.43248 9.79908 1.89342 8.79909 2.36719 7.80469C1.80067 7.03744 1.69911 6.2093 2.0625 5.32031C2.3517 4.79677 2.77357 4.42178 3.32812 4.19531C3.35156 3.2892 3.35937 2.38295 3.35156 1.47656C5.52366 1.49219 7.69552 1.47656 9.86719 1.42969C10.1665 0.661388 10.7134 0.177011 11.5078 -0.0234375ZM11.7422 1.42969C12.3102 1.3728 12.6539 1.6228 12.7734 2.17969C12.5994 2.8917 12.1775 3.10264 11.5078 2.8125C11.0487 2.26512 11.1269 1.80418 11.7422 1.42969ZM3.86719 5.55469C4.35106 5.5035 4.67138 5.70661 4.82812 6.16406C4.84439 6.81966 4.52406 7.12434 3.86719 7.07812C3.35941 6.86798 3.19535 6.50081 3.375 5.97656C3.49069 5.77495 3.65475 5.63433 3.86719 5.55469ZM19.7109 5.55469C20.4623 5.57302 20.7514 5.94802 20.5781 6.67969C20.1435 7.22423 19.6904 7.23984 19.2188 6.72656C18.9959 6.17241 19.1599 5.7818 19.7109 5.55469ZM3.63281 8.50781C3.91266 8.57016 4.19391 8.57016 4.47656 8.50781C4.8315 9.28359 5.19084 10.057 5.55469 10.8281C4.56994 10.8672 3.58557 10.8593 2.60156 10.8047C2.95873 10.0436 3.30248 9.27797 3.63281 8.50781ZM19.4297 8.50781C19.7202 8.56758 20.0093 8.56758 20.2969 8.50781C20.6484 9.27342 21 10.0391 21.3516 10.8047C20.3676 10.8593 19.3832 10.8672 18.3984 10.8281C18.7742 10.0674 19.118 9.294 19.4297 8.50781ZM1.42969 12.3047C3.17969 12.3047 4.9297 12.3047 6.67969 12.3047C6.40903 13.7539 5.53402 14.5351 4.05469 14.6484C2.60326 14.5094 1.72826 13.7281 1.42969 12.3047ZM17.2734 12.3047C19.0237 12.2891 20.7737 12.3047 22.5234 12.3516C22.2034 13.7497 21.3284 14.5153 19.8984 14.6484C18.4191 14.5351 17.5441 13.7539 17.2734 12.3047ZM9.39844 17.9766C11.1972 17.9546 12.9941 17.978 14.7891 18.0469C15.5452 18.2759 16.0764 18.7525 16.3828 19.4766C13.4453 19.539 10.5078 19.539 7.57031 19.4766C7.92755 18.666 8.53692 18.1659 9.39844 17.9766ZM4.42969 20.9766C9.46092 20.9766 14.4922 20.9766 19.5234 20.9766C19.5234 21.4922 19.5234 22.0078 19.5234 22.5234C14.4922 22.5234 9.46092 22.5234 4.42969 22.5234C4.42969 22.0078 4.42969 21.4922 4.42969 20.9766Z" fill="white"/>
</svg>
